<svg width="30" height="31" viewBox="0 0 30 31" fill="none" xmlns="http://www.w3.org/2000/svg">
<mask id="mask0_2_148" style="mask-type:alpha" maskUnits="userSpaceOnUse" x="0" y="0" width="30" height="31">
<rect y="0.5" width="30" height="30" fill="#D9D9D9"/>
</mask>
<g mask="url(#mask0_2_148)">
<path d="M15 15.1154C13.7969 15.1154 12.7669 14.687 11.9102 13.8303C11.0534 12.9735 10.625 11.9436 10.625 10.7404C10.625 9.53732 11.0534 8.50738 11.9102 7.65063C12.7669 6.79386 13.7969 6.36548 15 6.36548C16.2031 6.36548 17.233 6.79386 18.0898 7.65063C18.9466 8.50738 19.3749 9.53732 19.3749 10.7404C19.3749 11.9436 18.9466 12.9735 18.0898 13.8303C17.233 14.687 16.2031 15.1154 15 15.1154ZM5.625 24.6346V21.8558C5.625 21.2436 5.79127 20.6767 6.12381 20.1551C6.45633 19.6335 6.90064 19.2324 7.45672 18.952C8.6923 18.3462 9.9387 17.8919 11.1959 17.589C12.4531 17.2861 13.7211 17.1347 15 17.1347C16.2788 17.1347 17.5468 17.2861 18.804 17.589C20.0612 17.8919 21.3076 18.3462 22.5432 18.952C23.0993 19.2324 23.5436 19.6335 23.8761 20.1551C24.2087 20.6767 24.3749 21.2436 24.3749 21.8558V24.6346H5.625ZM7.49997 22.7596H22.5V21.8558C22.5 21.6026 22.4266 21.3682 22.28 21.1527C22.1334 20.9371 21.9343 20.7612 21.6827 20.625C20.6057 20.0946 19.5076 19.6927 18.3883 19.4195C17.2691 19.1463 16.1396 19.0096 15 19.0096C13.8603 19.0096 12.7309 19.1463 11.6116 19.4195C10.4923 19.6927 9.3942 20.0946 8.31728 20.625C8.06568 20.7612 7.86656 20.9371 7.71994 21.1527C7.57329 21.3682 7.49997 21.6026 7.49997 21.8558V22.7596ZM15 13.2404C15.6875 13.2404 16.276 12.9957 16.7656 12.5061C17.2552 12.0165 17.5 11.4279 17.5 10.7404C17.5 10.0529 17.2552 9.46441 16.7656 8.97482C16.276 8.48524 15.6875 8.24045 15 8.24045C14.3125 8.24045 13.7239 8.48524 13.2343 8.97482C12.7448 9.46441 12.5 10.0529 12.5 10.7404C12.5 11.4279 12.7448 12.0165 13.2343 12.5061C13.7239 12.9957 14.3125 13.2404 15 13.2404Z" fill="white"/>
</g>
</svg>
