<svg width="24" height="24" viewBox="0 0 24 24" fill="none" xmlns="http://www.w3.org/2000/svg">
<mask id="mask0_2_121" style="mask-type:alpha" maskUnits="userSpaceOnUse" x="0" y="0" width="24" height="24">
<rect width="24" height="24" fill="#D9D9D9"/>
</mask>
<g mask="url(#mask0_2_121)">
<path d="M8.0001 10.8847C8.24496 10.8847 8.45361 10.7985 8.62605 10.626C8.79848 10.4536 8.8847 10.2449 8.8847 10.0001C8.8847 9.7552 8.79848 9.54655 8.62605 9.37412C8.45361 9.20168 8.24496 9.11547 8.0001 9.11547C7.75523 9.11547 7.54658 9.20168 7.37415 9.37412C7.20171 9.54655 7.1155 9.7552 7.1155 10.0001C7.1155 10.2449 7.20171 10.4536 7.37415 10.626C7.54658 10.7985 7.75523 10.8847 8.0001 10.8847ZM12.0001 10.8847C12.245 10.8847 12.4536 10.7985 12.626 10.626C12.7985 10.4536 12.8847 10.2449 12.8847 10.0001C12.8847 9.7552 12.7985 9.54655 12.626 9.37412C12.4536 9.20168 12.245 9.11547 12.0001 9.11547C11.7552 9.11547 11.5466 9.20168 11.3741 9.37412C11.2017 9.54655 11.1155 9.7552 11.1155 10.0001C11.1155 10.2449 11.2017 10.4536 11.3741 10.626C11.5466 10.7985 11.7552 10.8847 12.0001 10.8847ZM16.0001 10.8847C16.245 10.8847 16.4536 10.7985 16.626 10.626C16.7985 10.4536 16.8847 10.2449 16.8847 10.0001C16.8847 9.7552 16.7985 9.54655 16.626 9.37412C16.4536 9.20168 16.245 9.11547 16.0001 9.11547C15.7552 9.11547 15.5466 9.20168 15.3741 9.37412C15.2017 9.54655 15.1155 9.7552 15.1155 10.0001C15.1155 10.2449 15.2017 10.4536 15.3741 10.626C15.5466 10.7985 15.7552 10.8847 16.0001 10.8847ZM2.50012 21.0385V4.30779C2.50012 3.80266 2.67512 3.37509 3.02512 3.02509C3.37512 2.67509 3.80269 2.50009 4.30782 2.50009H19.6924C20.1975 2.50009 20.6251 2.67509 20.9751 3.02509C21.3251 3.37509 21.5001 3.80266 21.5001 4.30779V15.6923C21.5001 16.1975 21.3251 16.625 20.9751 16.975C20.6251 17.325 20.1975 17.5 19.6924 17.5H6.03857L2.50012 21.0385ZM5.40012 16.0001H19.6924C19.7693 16.0001 19.8398 15.968 19.9039 15.9039C19.968 15.8398 20.0001 15.7693 20.0001 15.6923V4.30779C20.0001 4.23086 19.968 4.16033 19.9039 4.09622C19.8398 4.03212 19.7693 4.00007 19.6924 4.00007H4.30782C4.23089 4.00007 4.16036 4.03212 4.09625 4.09622C4.03215 4.16033 4.0001 4.23086 4.0001 4.30779V17.3847L5.40012 16.0001Z" fill="white"/>
</g>
</svg>
