<svg width="444" height="108" viewBox="0 0 444 108" fill="none" xmlns="http://www.w3.org/2000/svg">
<g clip-path="url(#clip0_60_218)">
<path d="M290.9 60.8952L312.524 104.159H346.125V2.66471H313.958V44.9142C313.959 45.5528 313.742 46.1731 313.342 46.6739C312.942 47.1747 312.383 47.5265 311.756 47.6721C311.129 47.8176 310.471 47.7483 309.888 47.4755C309.306 47.2026 308.834 46.7422 308.549 46.1694L286.814 2.66471H253.213V104.154H285.477V62.1454C285.477 61.5072 285.694 60.8877 286.094 60.3878C286.495 59.8878 287.054 59.5369 287.68 59.392C288.307 59.247 288.965 59.3167 289.547 59.5897C290.129 59.8626 290.601 60.3228 290.885 60.8952M203.453 2.66471H238.735V104.154H203.453V2.66471ZM356.552 43.8046V62.5119C356.552 80.7071 363.475 93.8614 377.123 101.603C398.899 113.959 430.256 106.333 444 96.2563V49.0262H412.136V78.7289L411.529 78.9649C408.998 79.9383 406.279 80.3375 403.572 80.1334C400.865 79.9292 398.239 79.1268 395.885 77.785C393.67 76.0135 391.939 73.719 390.851 71.1119C389.763 68.5049 389.352 65.6687 389.657 62.8633V41.9319C389.339 39.2134 390.028 36.4731 391.596 34.2207C393.164 31.9682 395.503 30.3569 398.18 29.6863C401.091 28.9912 404.159 29.418 406.765 30.8804C409.371 32.3427 411.32 34.7316 412.217 37.5639L443.083 21.1511C439.153 14.3802 433.403 8.82382 426.476 5.10076C419.548 1.37771 411.714 -0.365946 403.846 0.0639629C401.765 0.0639629 399.739 0.164378 397.81 0.335083C387.377 0.953185 377.42 4.88012 369.41 11.5363C365.072 15.6951 361.682 20.7266 359.468 26.2925C357.255 31.8583 356.269 37.8296 356.577 43.8046M87.5441 2.66471H0V32.3774H26.3336V104.174H61.1598V32.3774H87.5188L87.5441 2.66471ZM159.825 2.66471L137.765 70.6204C137.56 71.2657 137.129 71.8167 136.549 72.1733C135.969 72.53 135.28 72.6687 134.605 72.5642C133.931 72.4597 133.317 72.1189 132.875 71.6038C132.433 71.0886 132.191 70.4333 132.195 69.7568V2.65968H98.7409V104.154H161.997L196.621 2.66471H159.825Z" fill="black"/>
</g>
<defs>
<clipPath id="clip0_60_218">
<rect width="444" height="108" fill="white"/>
</clipPath>
</defs>
</svg>
