<svg width="150" height="37" viewBox="0 0 150 37" fill="none" xmlns="http://www.w3.org/2000/svg">
<g clip-path="url(#clip0_8_158)">
<path d="M98.2772 20.6478L105.583 35.3173H116.934V0.903525H106.067V15.2291C106.067 15.4457 105.994 15.656 105.859 15.8258C105.724 15.9956 105.535 16.1149 105.323 16.1642C105.111 16.2136 104.889 16.1901 104.692 16.0976C104.495 16.0051 104.336 15.849 104.24 15.6547L96.8965 0.903525H85.5449V35.3156H96.4448V21.0717C96.4448 20.8553 96.5183 20.6453 96.6535 20.4758C96.7887 20.3063 96.9775 20.1873 97.1893 20.1381C97.4011 20.089 97.6234 20.1126 97.82 20.2052C98.0166 20.2977 98.1759 20.4537 98.272 20.6478M68.734 0.903525H80.6536V35.3156H68.734V0.903525ZM120.457 14.8529V21.196C120.457 27.3655 122.796 31.8257 127.406 34.4508C134.763 38.6404 145.357 36.0545 150 32.6378V16.6234H139.235V26.6947L139.03 26.7747C138.175 27.1048 137.256 27.2402 136.342 27.1709C135.427 27.1017 134.54 26.8296 133.745 26.3747C132.997 25.774 132.412 24.996 132.044 24.112C131.677 23.228 131.538 22.2664 131.641 21.3152V14.2179C131.534 13.2961 131.766 12.367 132.296 11.6033C132.826 10.8395 133.616 10.2932 134.52 10.0658C135.504 9.8301 136.54 9.97481 137.421 10.4707C138.301 10.9665 138.959 11.7765 139.263 12.7368L149.69 7.17172C148.362 4.8759 146.42 2.99191 144.08 1.72952C141.739 0.467141 139.093 -0.124082 136.435 0.021688C135.731 0.021688 135.047 0.0557358 134.395 0.113617C130.87 0.323198 127.507 1.65471 124.801 3.91165C123.335 5.32176 122.19 7.0278 121.442 8.91503C120.694 10.8023 120.361 12.8269 120.465 14.8529M29.5757 0.903525H0V10.9783H8.89649V35.3224H20.6621V10.9783H29.5672L29.5757 0.903525ZM53.9949 0.903525L46.5423 23.9454C46.4731 24.1642 46.3273 24.351 46.1314 24.4719C45.9355 24.5929 45.7026 24.6399 45.4748 24.6044C45.247 24.569 45.0396 24.4535 44.8902 24.2788C44.7407 24.1041 44.6592 23.8819 44.6604 23.6525V0.901823H33.3584V35.3156H54.7288L66.426 0.903525H53.9949Z" fill="#FF143C"/>
</g>
<defs>
<clipPath id="clip0_8_158">
<rect width="150" height="36.6197" fill="white"/>
</clipPath>
</defs>
</svg>
