<svg width="214" height="53" viewBox="0 0 214 53" fill="none" xmlns="http://www.w3.org/2000/svg">
<g clip-path="url(#clip0_6_105)">
<path d="M140.054 29.6271L150.427 50.4577H166.546V1.59014H151.115V21.9325C151.115 22.24 151.011 22.5386 150.82 22.7797C150.628 23.0209 150.36 23.1903 150.059 23.2604C149.758 23.3304 149.442 23.2971 149.163 23.1657C148.883 23.0343 148.657 22.8127 148.52 22.5368L138.093 1.59014H121.974V50.4553H137.452V30.229C137.452 29.9217 137.556 29.6234 137.748 29.3827C137.94 29.142 138.208 28.973 138.509 28.9033C138.81 28.8335 139.125 28.867 139.404 28.9985C139.684 29.1299 139.91 29.3514 140.046 29.6271M98.1022 1.59014H115.028V50.4553H98.1022V1.59014ZM171.549 21.3982V30.4055C171.549 39.1661 174.87 45.4996 181.417 49.2273C191.864 55.1765 206.907 51.5045 213.5 46.6527V23.9123H198.214V38.2136L197.923 38.3272C196.708 38.7959 195.404 38.9882 194.106 38.8899C192.807 38.7916 191.547 38.4052 190.418 37.7592C189.355 36.9062 188.525 35.8015 188.003 34.5462C187.481 33.291 187.284 31.9254 187.43 30.5747V20.4966C187.278 19.1877 187.608 17.8683 188.36 16.7838C189.112 15.6992 190.235 14.9234 191.519 14.6005C192.915 14.2659 194.387 14.4714 195.637 15.1755C196.888 15.8796 197.822 17.0297 198.253 18.3934L213.06 10.491C211.175 7.23091 208.416 4.55564 205.093 2.76305C201.77 0.97047 198.012 0.130933 194.237 0.337926C193.239 0.337926 192.267 0.386274 191.341 0.468465C186.336 0.76607 181.56 2.65681 177.717 5.86167C175.636 7.86404 174.01 10.2866 172.948 12.9665C171.886 15.6463 171.413 18.5214 171.561 21.3982M42.4975 1.59014H0.5V15.8963H13.133V50.465H29.8402V15.8963H42.4854L42.4975 1.59014ZM77.1727 1.59014L66.5901 34.3095C66.4918 34.6202 66.2848 34.8855 66.0066 35.0573C65.7285 35.229 65.3976 35.2958 65.0742 35.2454C64.7508 35.1951 64.4562 35.031 64.244 34.783C64.0318 34.535 63.9161 34.2195 63.9178 33.8937V1.58772H47.869V50.4553H78.2149L94.8249 1.59014H77.1727Z" fill="black"/>
</g>
<defs>
<clipPath id="clip0_6_105">
<rect width="213" height="52" fill="white" transform="translate(0.5 0.307129)"/>
</clipPath>
</defs>
</svg>
