<svg width="213" height="52" viewBox="0 0 213 52" fill="none" xmlns="http://www.w3.org/2000/svg">
<g clip-path="url(#clip0_6_105)">
<path d="M139.554 29.3199L149.927 50.1506H166.046V1.28301H150.615V21.6254C150.615 21.9329 150.511 22.2315 150.32 22.4726C150.128 22.7137 149.86 22.8831 149.559 22.9532C149.258 23.0233 148.942 22.9899 148.663 22.8586C148.383 22.7272 148.157 22.5055 148.02 22.2297L137.593 1.28301H121.474V50.1482H136.952V29.9219C136.952 29.6146 137.056 29.3163 137.248 29.0756C137.44 28.8349 137.708 28.6659 138.009 28.5961C138.31 28.5264 138.625 28.5599 138.904 28.6913C139.184 28.8227 139.41 29.0443 139.546 29.3199M97.6022 1.28301H114.528V50.1482H97.6022V1.28301ZM171.049 21.0911V30.0983C171.049 38.859 174.37 45.1925 180.917 48.9201C191.364 54.8693 206.407 51.1973 213 46.3456V23.6052H197.714V37.9065L197.423 38.0201C196.208 38.4888 194.904 38.681 193.606 38.5827C192.307 38.4844 191.047 38.0981 189.918 37.452C188.855 36.5991 188.025 35.4943 187.503 34.2391C186.981 32.9838 186.784 31.6182 186.93 30.2675V20.1894C186.778 18.8805 187.108 17.5611 187.86 16.4766C188.612 15.3921 189.735 14.6163 191.019 14.2934C192.415 13.9587 193.887 14.1642 195.137 14.8683C196.388 15.5724 197.322 16.7226 197.753 18.0863L212.56 10.1838C210.675 6.92378 207.916 4.24851 204.593 2.45592C201.27 0.663341 197.512 -0.176196 193.737 0.030797C192.739 0.030797 191.767 0.0791448 190.841 0.161336C185.836 0.458941 181.06 2.34969 177.217 5.55454C175.136 7.55691 173.51 9.97948 172.448 12.6593C171.386 15.3392 170.913 18.2142 171.061 21.0911M41.9975 1.28301H0V15.5891H12.633V50.1578H29.3402V15.5891H41.9854L41.9975 1.28301ZM76.6727 1.28301L66.0901 34.0024C65.9918 34.3131 65.7848 34.5784 65.5066 34.7501C65.2285 34.9219 64.8976 34.9886 64.5742 34.9383C64.2508 34.888 63.9562 34.7239 63.744 34.4759C63.5318 34.2279 63.4161 33.9123 63.4178 33.5866V1.28059H47.369V50.1482H77.7149L94.3249 1.28301H76.6727Z" fill="black"/>
</g>
<defs>
<clipPath id="clip0_6_105">
<rect width="213" height="52" fill="white"/>
</clipPath>
</defs>
</svg>
