<svg width="24" height="24" viewBox="0 0 24 24" fill="none" xmlns="http://www.w3.org/2000/svg">
<mask id="mask0_1_25" style="mask-type:alpha" maskUnits="userSpaceOnUse" x="0" y="0" width="24" height="24">
<path d="M24 0H0V24H24V0Z" fill="#D9D9D9"/>
</mask>
<g mask="url(#mask0_1_25)">
<path d="M10.6 16.2L17.65 9.14999L16.25 7.75L10.6 13.4L7.75 10.55L6.35 11.95L10.6 16.2ZM5 21C4.45 21 3.97917 20.804 3.5875 20.413C3.19583 20.021 3 19.55 3 19V5C3 4.45 3.19583 3.97901 3.5875 3.58801C3.97917 3.19601 4.45 3 5 3H19C19.55 3 20.0208 3.19601 20.4125 3.58801C20.8042 3.97901 21 4.45 21 5V19C21 19.55 20.8042 20.021 20.4125 20.413C20.0208 20.804 19.55 21 19 21H5ZM5 19H19V5H5V19Z" fill="white"/>
</g>
</svg>
