<svg width="198" height="60" viewBox="0 0 198 60" fill="none" xmlns="http://www.w3.org/2000/svg">
<path d="M47.518 26.6701C37.995 21.0086 22.288 20.4881 13.197 23.2502C11.737 23.6934 10.193 22.8684 9.75101 21.407C9.30901 19.9449 10.132 18.4005 11.593 17.9562C22.028 14.7847 39.376 15.3975 50.339 21.9124C51.652 22.6925 52.083 24.3902 51.304 25.7029C50.525 27.0172 48.828 27.4505 47.518 26.6701ZM47.206 35.0558C46.538 36.1413 45.121 36.4813 44.038 35.8153C36.099 30.9297 23.993 29.5144 14.6 32.3686C13.382 32.7371 12.095 32.0496 11.726 30.8324C11.358 29.613 12.046 28.3274 13.261 27.9566C23.991 24.6971 37.33 26.2759 46.449 31.8859C47.531 32.5533 47.872 33.9732 47.206 35.0558ZM43.591 43.1092C43.061 43.9805 41.927 44.2538 41.06 43.7227C34.122 39.478 25.39 38.5191 15.107 40.8708C14.116 41.0983 13.128 40.4764 12.902 39.4846C12.675 38.4926 13.294 37.5041 14.287 37.2778C25.541 34.7022 35.194 35.8107 42.981 40.5742C43.849 41.1049 44.122 42.2405 43.591 43.1092ZM30.043 0.450989C13.727 0.450989 0.5 13.692 0.5 30.0259C0.5 46.3612 13.727 59.6019 30.043 59.6019C46.359 59.6019 59.586 46.3612 59.586 30.0259C59.586 13.692 46.359 0.450989 30.043 0.450989Z" fill="#1ED760"/>
<path d="M80.876 27.7542C75.775 26.5364 74.867 25.6816 74.867 23.8862C74.867 22.1893 76.462 21.0478 78.835 21.0478C81.135 21.0478 83.416 21.9148 85.807 23.6998C85.879 23.7538 85.97 23.7753 86.059 23.7612C86.149 23.7478 86.227 23.6991 86.28 23.6249L88.771 20.1101C88.873 19.9657 88.845 19.7658 88.707 19.6553C85.861 17.3692 82.657 16.2578 78.911 16.2578C73.403 16.2578 69.556 19.5663 69.556 24.3009C69.556 29.3778 72.875 31.1752 78.609 32.5628C83.49 33.6884 84.314 34.6312 84.314 36.3172C84.314 38.185 82.648 39.3463 79.968 39.3463C76.991 39.3463 74.562 38.3422 71.845 35.9869C71.778 35.929 71.685 35.9022 71.6 35.907C71.51 35.9145 71.428 35.9561 71.371 36.0249L68.578 39.3522C68.461 39.4903 68.476 39.6965 68.611 39.8159C71.772 42.6409 75.66 44.1334 79.855 44.1334C85.79 44.1334 89.625 40.8867 89.625 35.8622C89.625 31.6157 87.09 29.2673 80.876 27.7542Z" fill="#1ED760"/>
<path d="M107.36 33.4454C107.36 37.0312 105.153 39.5333 101.994 39.5333C98.871 39.5333 96.515 36.9175 96.515 33.4454C96.515 29.9739 98.871 27.3577 101.994 27.3577C105.103 27.3577 107.36 29.9173 107.36 33.4454ZM103.052 22.718C100.479 22.718 98.369 23.7323 96.629 25.8107V23.4713C96.629 23.2866 96.48 23.1361 96.295 23.1361H91.728C91.544 23.1361 91.394 23.2866 91.394 23.4713V49.4653C91.394 49.65 91.544 49.8004 91.728 49.8004H96.295C96.48 49.8004 96.629 49.65 96.629 49.4653V41.2604C98.37 43.2155 100.48 44.1705 103.052 44.1705C107.831 44.1705 112.67 40.4869 112.67 33.4454C112.67 26.4025 107.831 22.718 103.052 22.718Z" fill="#1ED760"/>
<path d="M125.073 39.5709C121.799 39.5709 119.331 36.9373 119.331 33.4455C119.331 29.939 121.714 27.3944 124.998 27.3944C128.293 27.3944 130.778 30.0279 130.778 33.522C130.778 37.0281 128.379 39.5709 125.073 39.5709ZM125.073 22.718C118.917 22.718 114.095 27.4633 114.095 33.522C114.095 39.515 118.884 44.2105 124.998 44.2105C131.175 44.2105 136.012 39.4812 136.012 33.4455C136.012 27.43 131.208 22.718 125.073 22.718Z" fill="#1ED760"/>
<path d="M149.158 23.1361H144.131V17.9919C144.131 17.8071 143.983 17.6571 143.798 17.6571H139.231C139.047 17.6571 138.896 17.8071 138.896 17.9919V23.1361H136.7C136.516 23.1361 136.368 23.2866 136.368 23.4713V27.4009C136.368 27.5855 136.516 27.7358 136.7 27.7358H138.896V37.9042C138.896 42.0134 140.939 44.0967 144.968 44.0967C146.607 44.0967 147.966 43.758 149.247 43.0308C149.351 42.9726 149.416 42.8603 149.416 42.7409V38.9988C149.416 38.8832 149.355 38.7745 149.257 38.7137C149.157 38.6513 149.034 38.6481 148.932 38.6986C148.052 39.1417 147.201 39.3463 146.251 39.3463C144.786 39.3463 144.131 38.6805 144.131 37.1877V27.7358H149.158C149.342 27.7358 149.491 27.5855 149.491 27.4009V23.4713C149.491 23.2866 149.342 23.1361 149.158 23.1361Z" fill="#1ED760"/>
<path d="M166.668 23.1563V22.5244C166.668 20.6657 167.38 19.8368 168.977 19.8368C169.929 19.8368 170.694 20.0261 171.55 20.3122C171.656 20.3454 171.766 20.3288 171.852 20.2656C171.94 20.2024 171.99 20.101 171.99 19.9936V16.1406C171.99 15.9933 171.895 15.863 171.754 15.8199C170.849 15.5504 169.691 15.2735 167.957 15.2735C163.738 15.2735 161.509 17.6518 161.509 22.1487V23.1164H159.315C159.131 23.1164 158.98 23.2665 158.98 23.4512V27.4009C158.98 27.5855 159.131 27.7358 159.315 27.7358H161.509V43.42C161.509 43.6048 161.658 43.7549 161.842 43.7549H166.409C166.594 43.7549 166.744 43.6048 166.744 43.42V27.7358H171.008L177.541 43.4159C176.799 45.0634 176.07 45.3912 175.074 45.3912C174.27 45.3912 173.422 45.1506 172.556 44.676C172.474 44.631 172.378 44.6237 172.29 44.6509C172.203 44.6819 172.129 44.7466 172.092 44.8317L170.544 48.2317C170.471 48.3923 170.533 48.581 170.688 48.6643C172.304 49.5405 173.763 49.9145 175.566 49.9145C178.938 49.9145 180.802 48.3415 182.446 44.1105L190.37 23.6126C190.409 23.5094 190.398 23.3932 190.334 23.3014C190.272 23.211 190.17 23.1563 190.06 23.1563H185.305C185.163 23.1563 185.035 23.2467 184.988 23.3805L180.118 37.3088L174.783 23.3713C174.734 23.2417 174.609 23.1563 174.471 23.1563H166.668Z" fill="#1ED760"/>
<path d="M156.517 23.1361H151.949C151.765 23.1361 151.615 23.2866 151.615 23.4713V43.42C151.615 43.6048 151.765 43.7549 151.949 43.7549H156.517C156.701 43.7549 156.851 43.6048 156.851 43.42V23.4713C156.851 23.2866 156.701 23.1361 156.517 23.1361Z" fill="#1ED760"/>
<path d="M154.256 14.053C152.447 14.053 150.979 15.5197 150.979 17.3307C150.979 19.1432 152.447 20.6113 154.256 20.6113C156.065 20.6113 157.532 19.1432 157.532 17.3307C157.532 15.5197 156.065 14.053 154.256 14.053Z" fill="#1ED760"/>
<path d="M194.456 25.1205H193.619V26.1888H194.456C194.874 26.1888 195.123 25.9842 195.123 25.6544C195.123 25.3068 194.874 25.1205 194.456 25.1205ZM194.998 26.6445L195.908 27.9189H195.141L194.323 26.75H193.619V27.9189H192.977V24.541H194.482C195.265 24.541 195.781 24.9426 195.781 25.6185C195.781 26.1721 195.462 26.5105 194.998 26.6445ZM194.286 23.4172C192.639 23.4172 191.393 24.7271 191.393 26.3318C191.393 27.9355 192.631 29.2281 194.269 29.2281C195.915 29.2281 197.162 27.9189 197.162 26.3135C197.162 24.7098 195.924 23.4172 194.286 23.4172ZM194.269 29.55C192.461 29.55 191.055 28.0966 191.055 26.3318C191.055 24.5668 192.48 23.0969 194.286 23.0969C196.093 23.0969 197.5 24.5502 197.5 26.3135C197.5 28.0785 196.076 29.55 194.269 29.55Z" fill="#1ED760"/>
</svg>
