<svg width="16" height="17" viewBox="0 0 16 17" fill="none" xmlns="http://www.w3.org/2000/svg">
<mask id="mask0_2_203" style="mask-type:alpha" maskUnits="userSpaceOnUse" x="0" y="0" width="16" height="17">
<rect y="0.0112305" width="16" height="16" fill="#D9D9D9"/>
</mask>
<g mask="url(#mask0_2_203)">
<path d="M8.00004 14.6779C7.07782 14.6779 6.21115 14.5029 5.40004 14.1529C4.58893 13.8029 3.88337 13.3279 3.28337 12.7279C2.68337 12.1279 2.20837 11.4224 1.85837 10.6112C1.50837 9.80013 1.33337 8.93346 1.33337 8.01124C1.33337 7.08902 1.50837 6.22235 1.85837 5.41124C2.20837 4.60013 2.68337 3.89457 3.28337 3.29457C3.88337 2.69457 4.58893 2.21957 5.40004 1.86957C6.21115 1.51957 7.07782 1.34457 8.00004 1.34457C8.92226 1.34457 9.78893 1.51957 10.6 1.86957C11.4112 2.21957 12.1167 2.69457 12.7167 3.29457C13.3167 3.89457 13.7917 4.60013 14.1417 5.41124C14.4917 6.22235 14.6667 7.08902 14.6667 8.01124C14.6667 8.93346 14.4917 9.80013 14.1417 10.6112C13.7917 11.4224 13.3167 12.1279 12.7167 12.7279C12.1167 13.3279 11.4112 13.8029 10.6 14.1529C9.78893 14.5029 8.92226 14.6779 8.00004 14.6779ZM8.00004 13.3446C9.48893 13.3446 10.75 12.8279 11.7834 11.7946C12.8167 10.7612 13.3334 9.50013 13.3334 8.01124C13.3334 6.52235 12.8167 5.26124 11.7834 4.22791C10.75 3.19457 9.48893 2.67791 8.00004 2.67791C6.51115 2.67791 5.25004 3.19457 4.21671 4.22791C3.18337 5.26124 2.66671 6.52235 2.66671 8.01124C2.66671 9.50013 3.18337 10.7612 4.21671 11.7946C5.25004 12.8279 6.51115 13.3446 8.00004 13.3446Z" fill="#1C1B1F"/>
</g>
</svg>
