<svg width="18" height="18" viewBox="0 0 18 18" fill="none" xmlns="http://www.w3.org/2000/svg">
<mask id="mask0_19_15" style="mask-type:alpha" maskUnits="userSpaceOnUse" x="0" y="0" width="18" height="18">
<rect width="18" height="18" fill="#35C5F0"/>
</mask>
<g mask="url(#mask0_19_15)">
<path d="M7.95 11.8903L12.9922 6.84806L12.2019 6.05775L7.95 10.3097L5.8125 8.17219L5.02219 8.9625L7.95 11.8903ZM3.98081 15.375C3.60194 15.375 3.28125 15.2438 3.01875 14.9813C2.75625 14.7188 2.625 14.3981 2.625 14.0192V3.98081C2.625 3.60194 2.75625 3.28125 3.01875 3.01875C3.28125 2.75625 3.60194 2.625 3.98081 2.625H14.0192C14.3981 2.625 14.7188 2.75625 14.9813 3.01875C15.2438 3.28125 15.375 3.60194 15.375 3.98081V14.0192C15.375 14.3981 15.2438 14.7188 14.9813 14.9813C14.7188 15.2438 14.3981 15.375 14.0192 15.375H3.98081ZM3.98081 14.25H14.0192C14.0769 14.25 14.1298 14.2259 14.1778 14.1778C14.2259 14.1298 14.25 14.0769 14.25 14.0192V3.98081C14.25 3.92306 14.2259 3.87019 14.1778 3.82219C14.1298 3.77406 14.0769 3.75 14.0192 3.75H3.98081C3.92306 3.75 3.87019 3.77406 3.82219 3.82219C3.77406 3.87019 3.75 3.92306 3.75 3.98081V14.0192C3.75 14.0769 3.77406 14.1298 3.82219 14.1778C3.87019 14.2259 3.92306 14.25 3.98081 14.25Z" fill="#35C5F0"/>
</g>
</svg>
